<?xml version="1.0" standalone="no"?>
<!DOCTYPE svg PUBLIC "-//W3C//DTD SVG 20010904//EN"
 "http://www.w3.org/TR/2001/REC-SVG-20010904/DTD/svg10.dtd">
<svg version="1.0" xmlns="http://www.w3.org/2000/svg"
 width="1248.000000pt" height="1248.000000pt" viewBox="0 0 1248.000000 1248.000000"
 preserveAspectRatio="xMidYMid meet">
<metadata>
Created by potrace 1.11, written by Peter Selinger 2001-2013
</metadata>
<g transform="translate(0.000000,1248.000000) scale(0.100000,-0.100000)"
fill="#000000" stroke="none">
<path d="M5912 12470 c-30 -3 -71 -6 -93 -5 -21 0 -39 -2 -39 -5 0 -3 -15 -6
-32 -7 -66 -3 -136 -12 -238 -33 -58 -11 -112 -21 -120 -21 -30 -2 -340 -80
-380 -96 -20 -8 -42 -14 -57 -15 -7 -1 -13 -5 -13 -10 0 -4 -3 -7 -7 -6 -9 2
-101 -27 -148 -46 -16 -7 -46 -19 -65 -26 -19 -7 -63 -26 -98 -42 -35 -15 -65
-28 -67 -28 -8 0 -211 -100 -264 -130 -30 -17 -73 -41 -95 -53 -49 -27 -67
-38 -216 -136 -137 -89 -208 -142 -344 -254 -158 -130 -325 -293 -463 -453
-98 -113 -224 -280 -313 -414 -70 -104 -107 -166 -103 -172 2 -5 1 -8 -4 -8
-4 0 -26 -35 -48 -78 -22 -42 -43 -79 -46 -82 -10 -9 -119 -240 -119 -253 0
-7 -4 -17 -9 -23 -5 -5 -23 -43 -39 -84 -16 -41 -33 -84 -37 -95 -4 -11 -9
-24 -11 -30 -2 -5 -15 -44 -29 -85 -50 -140 -140 -478 -131 -488 3 -2 1 -12
-3 -21 -5 -9 -12 -34 -16 -56 -14 -84 -16 -101 -19 -125 -2 -14 -6 -43 -9 -65
-28 -180 -49 -577 -32 -605 3 -5 2 -10 -3 -10 -5 0 -7 -12 -5 -27 2 -16 6 -64
9 -108 5 -97 12 -180 14 -180 1 0 3 -18 4 -40 8 -93 33 -256 61 -385 11 -53
15 -68 35 -150 21 -85 84 -297 99 -335 37 -91 71 -182 71 -192 0 -7 5 -13 11
-13 5 0 8 -4 5 -9 -3 -5 13 -46 35 -92 23 -46 42 -88 43 -94 1 -5 5 -16 10
-23 8 -14 118 -228 194 -377 24 -49 51 -97 58 -105 7 -8 12 -19 12 -23 0 -9
33 -78 42 -87 5 -5 101 -192 224 -435 28 -55 53 -102 56 -105 11 -11 40 -72
40 -85 0 -7 4 -15 8 -17 5 -1 39 -64 76 -138 88 -173 146 -282 158 -298 6 -6
7 -12 3 -12 -4 0 -3 -6 2 -12 22 -28 103 -188 96 -188 -4 0 -3 -4 3 -8 12 -8
46 -70 42 -75 -2 -2 2 -10 9 -18 6 -8 36 -61 66 -119 114 -221 232 -450 296
-575 36 -71 68 -132 71 -135 3 -3 36 -66 74 -140 141 -277 218 -425 228 -437
6 -7 7 -13 2 -13 -5 0 -4 -4 1 -8 6 -4 36 -56 66 -117 31 -60 87 -171 126
-245 39 -74 97 -187 129 -250 33 -63 62 -116 67 -118 4 -2 7 -12 7 -22 0 -10
3 -20 8 -22 4 -1 24 -37 45 -78 20 -41 41 -82 46 -90 6 -8 16 -28 24 -45 7
-16 55 -109 104 -205 50 -96 106 -204 124 -240 19 -36 39 -68 44 -72 6 -4 6
-8 2 -8 -5 0 1 -13 13 -30 12 -16 18 -30 14 -30 -3 0 -2 -6 4 -12 5 -7 42 -76
82 -153 40 -77 104 -201 143 -275 147 -283 186 -359 248 -480 35 -69 68 -128
72 -131 5 -3 7 -8 6 -10 -5 -7 60 -121 96 -171 47 -64 147 -145 225 -182 36
-17 70 -32 75 -33 115 -29 138 -32 230 -29 113 5 180 22 279 74 68 36 183 137
223 197 29 43 98 179 95 188 -1 4 2 7 8 7 5 0 10 4 10 10 0 14 163 344 173
348 4 2 7 10 7 17 0 8 18 48 40 90 23 41 37 75 33 75 -4 0 -3 4 2 8 12 8 155
294 155 310 0 6 3 12 8 14 4 2 23 37 42 78 19 41 38 77 43 78 4 2 7 10 7 18 0
16 20 56 33 65 5 3 8 8 7 10 -3 8 14 45 37 82 13 20 21 37 18 37 -8 0 47 103
60 112 6 4 6 8 2 8 -5 0 3 20 17 45 15 25 24 45 20 45 -4 0 1 9 11 20 10 11
15 20 10 20 -4 0 -2 7 5 15 10 13 91 170 95 185 2 7 68 139 83 165 6 11 83
166 170 345 88 179 258 523 378 765 120 242 218 442 219 445 3 16 111 226 117
228 5 2 8 8 8 14 0 6 61 134 135 285 74 150 135 278 135 283 0 6 5 10 10 10 6
0 10 9 10 20 0 11 5 20 10 20 6 0 10 5 10 11 0 6 84 181 186 388 102 207 207
419 233 471 25 52 49 97 52 100 3 3 9 17 13 33 3 15 11 27 16 27 6 0 10 5 10
11 0 6 29 71 65 145 36 74 65 137 64 140 0 4 3 10 8 13 14 10 213 423 213 442
0 5 4 17 9 27 10 19 18 42 19 56 0 5 4 12 9 15 4 3 14 24 22 46 8 22 18 51 24
65 6 14 11 30 12 35 2 6 17 55 35 110 43 136 58 186 64 215 3 14 15 66 26 115
11 50 23 101 25 115 3 14 7 36 10 50 3 14 8 41 11 60 2 19 6 46 9 60 2 14 7
48 10 75 3 28 8 64 10 82 29 208 34 702 10 833 -3 14 -8 54 -11 90 -6 69 -11
115 -14 115 -1 0 -3 16 -5 35 -4 38 -11 83 -25 145 -5 22 -12 60 -15 85 -4 24
-12 53 -17 65 -6 11 -10 21 -9 23 4 4 -19 107 -39 172 -8 25 -15 55 -16 68 -2
13 -7 29 -12 35 -5 7 -14 32 -21 57 -6 25 -16 54 -21 65 -14 29 -61 166 -67
193 -3 12 -9 22 -14 22 -5 0 -9 6 -9 13 0 6 -13 40 -30 75 -16 34 -29 63 -28
65 2 6 -47 103 -55 108 -5 3 -9 10 -9 15 -1 15 -21 57 -41 87 -10 15 -15 27
-11 27 4 0 1 8 -7 18 -8 9 -20 28 -27 41 -8 13 -22 39 -33 57 -42 75 -152 244
-208 320 -9 12 -23 32 -31 44 -24 35 -89 118 -145 184 -11 13 -40 48 -64 78
-55 66 -354 364 -399 398 -19 14 -49 40 -68 58 -19 17 -36 32 -39 32 -5 0 -30
20 -84 67 -20 18 -41 33 -48 33 -6 0 -13 3 -15 8 -7 15 -233 172 -249 172 -5
0 -9 3 -9 8 0 4 -10 12 -23 18 -12 6 -73 40 -134 77 -62 36 -113 63 -113 60 0
-3 -9 2 -20 12 -11 10 -20 14 -20 10 0 -4 -8 -2 -17 6 -10 8 -43 26 -73 39
-30 13 -62 30 -71 37 -8 7 -19 13 -23 13 -9 0 -228 86 -270 106 -16 8 -39 14
-52 14 -13 0 -25 4 -28 8 -4 7 -122 47 -166 57 -3 1 -25 7 -50 14 -25 7 -52
14 -60 16 -8 2 -51 12 -95 24 -44 11 -96 23 -115 25 -19 3 -53 10 -75 15 -22
6 -42 10 -45 11 -3 0 -18 2 -35 5 -16 2 -48 7 -70 10 -22 3 -51 7 -65 9 -14 2
-55 7 -91 11 -36 3 -79 8 -95 11 -47 7 -574 11 -632 4z"/>
</g>
</svg>
